PathFileType	4	(X/Y/Z)	D:\TRACE\spot_10-12-23\spot_arm_motion_3_3-v60.trc
DataRate	CameraRate	NumFrames	NumMarkers	Units	OrigDataRate	OrigDataStartFrame	OrigNumFrames
100.00	100.00	      28	9	mm	100.00	1751	      7000
Frame#	Time	front left toe			Front right toe			aft left toe			aft right toe			Arm			FL body			FR body			AL Body			AR Body			
		X1	Y1	Z1	X2	Y2	Z2	X3	Y3	Z3	X4	Y4	Z4	X5	Y5	Z5	X6	Y6	Z6	X7	Y7	Z7	X8	Y8	Z8	X9	Y9	Z9	

1751	17.500	-210.60033	22.30656	-5.37533	283.17548	23.49171	16.30461	-220.92201	12.96048	607.81152	261.76703	7.72582	623.95544	1.02986	865.94806	-685.24713	-36.57573	560.95490	-50.05619	116.10307	566.76678	-47.23762	-55.95145	533.57007	833.13397	94.88218	533.12109	838.56018	
1752	17.510	-210.61308	22.31506	-5.53446	283.08655	23.58457	16.26604	-221.05251	13.43719	607.68628	261.52661	8.05374	623.69910	1.10670	866.04865	-685.36816	-36.49483	560.81482	-50.27378	116.06382	566.67371	-47.43674	-56.10329	534.03369	832.98102	94.62264	533.55634	838.18774	
1753	17.520	-210.60484	22.27824	-5.61012	283.08206	23.48515	16.17547	-221.18265	13.80100	607.64001	261.53400	8.58252	623.59589	1.10208	866.18744	-685.38379	-36.53598	560.74866	-50.49466	116.24286	566.43408	-47.32824	-56.19923	534.60699	832.96228	94.46630	534.22369	838.05713	
1754	17.530	-210.61826	22.25138	-5.68628	283.13400	23.47351	16.15859	-221.28024	14.33886	607.36816	261.44763	8.85656	623.38245	1.09504	866.36340	-685.41650	-36.50190	560.69403	-50.71733	116.31400	566.25745	-47.47017	-56.46957	535.16547	832.79340	94.56621	534.77991	838.35675	
1755	17.540	-210.62651	22.21317	-5.72744	283.01993	23.58438	16.08562	-221.32835	14.72529	607.25928	261.36328	9.22553	623.33746	1.01505	866.59094	-685.40094	-36.51110	560.58978	-50.94535	116.03733	566.41473	-48.01920	-56.46408	535.59961	832.64349	94.92237	535.42041	838.66290	
1756	17.550	-210.59464	22.14671	-5.84228	282.98068	23.57991	16.04342	-221.36743	15.12281	607.16455	261.54916	9.93352	623.44324	0.77903	866.73804	-685.55591	-36.50983	560.58716	-51.12726	116.11212	566.23804	-48.21322	-56.71092	536.04346	832.20044	94.00269	535.66528	837.48254	
1757	17.560	-210.64241	22.09789	-5.88572	283.05688	23.44190	15.92570	-221.42058	15.58103	607.03040	261.33484	10.29404	623.19800	0.59587	867.05005	-685.52484	-36.51685	560.41595	-51.18848	116.10719	566.14447	-48.33538	-57.04493	536.67566	831.88000	94.06600	536.24414	837.66589	
1758	17.570	-210.71132	22.04863	-5.99581	282.98993	23.39525	15.81362	-221.43396	15.94576	606.92871	261.19250	10.74928	623.06744	0.47090	867.17871	-685.60614	-36.59821	560.39117	-51.35824	115.98518	566.00323	-48.55537	-57.01445	537.30634	831.96692	93.81530	537.00732	837.46466	
1759	17.580	-210.74104	22.01257	-6.04891	282.82620	23.55186	15.70307	-221.54376	16.24892	606.85370	261.14023	11.03952	623.00360	0.43997	867.33087	-685.74988	-36.77847	560.25641	-51.60734	115.83908	565.90393	-48.80897	-56.94657	537.77191	831.93573	94.35319	537.49402	837.87134	
1760	17.590	-210.85768	22.01088	-6.21154	282.90616	23.37133	15.63604	-221.64798	16.59282	606.81464	261.15674	11.44610	622.88861	0.32847	867.44678	-685.96631	-36.91373	560.16418	-51.81136	115.80630	565.81555	-48.95238	-56.65104	538.10620	831.77820	93.98907	537.76550	837.18561	
1761	17.600	-210.93977	22.04897	-6.39455	282.84738	23.33186	15.52431	-221.75220	17.05618	606.73804	261.10922	11.69493	622.83026	0.21461	867.59448	-686.08301	-37.06986	560.02417	-52.02217	115.72063	565.78772	-49.06866	-56.85130	538.62097	831.56995	93.92318	538.34125	836.96472	
1762	17.610	-211.05656	22.10510	-6.58704	282.83380	23.24283	15.36833	-221.83714	17.42450	606.57733	260.98846	12.01505	622.73663	0.02310	867.71527	-686.23987	-37.19806	559.93536	-52.27895	115.73695	565.62378	-49.08143	-57.11069	539.06641	831.42926	93.49397	538.64520	836.41669	
1763	17.620	-211.11713	22.06003	-6.55321	282.67661	23.16272	15.19826	-221.87415	17.65982	606.51337	260.81705	12.44306	622.51355	-0.18295	867.88995	-686.36530	-37.25615	559.74097	-52.45716	115.78861	565.50488	-49.17859	-57.18898	539.45673	831.21631	93.31588	539.12311	836.16107	
1764	17.630	-211.21172	22.06057	-6.65958	282.70078	23.20204	15.15458	-221.92970	18.08551	606.38879	260.71393	12.76024	622.37299	-0.39457	868.02472	-686.49792	-37.27866	559.59015	-52.55791	115.73280	565.38702	-49.33556	-56.90830	539.76184	831.12024	93.52761	539.51233	836.33527	
1765	17.640	-211.31018	22.04189	-6.77967	282.64084	23.16889	14.97788	-221.95197	18.43160	606.36963	260.60898	13.06910	622.34595	-0.38981	868.12335	-686.57794	-37.23609	559.47253	-52.69798	115.67653	565.26050	-49.56134	-57.20679	540.27734	830.73462	93.46592	539.93610	836.29523	
1766	17.650	-211.35292	22.01261	-6.87999	282.59744	23.17039	15.00998	-221.96716	18.69982	606.32654	260.73605	13.47814	622.52527	-0.68924	868.20331	-686.65546	-37.25575	559.42438	-52.79588	115.52318	565.32031	-50.01946	-57.40992	541.02081	830.45636	93.30175	540.33759	835.79785	
1767	17.660	-211.41661	22.00851	-6.96648	282.46616	23.17448	14.79216	-222.08681	19.02049	606.28326	260.71719	13.74549	622.43457	-0.99307	868.32928	-686.65900	-37.29596	559.37628	-52.90198	115.50072	565.24603	-50.16761	-57.20356	541.25854	830.50696	93.30695	540.82849	835.65686	
1768	17.670	-211.45872	21.92106	-7.07320	282.38870	23.15860	14.70785	-222.28207	19.33457	606.19751	260.54340	13.92703	622.18445	-1.14853	868.45587	-686.63696	-37.39400	559.32831	-52.97372	115.41544	565.25183	-50.27276	-57.10541	541.45691	830.42419	93.32529	541.29010	835.56201	
1769	17.680	-211.48903	21.88871	-7.14056	282.23944	23.18217	14.55052	-222.38060	19.58733	606.14111	260.50726	14.24251	622.09497	-1.42670	868.65570	-686.62811	-37.52163	559.45044	-53.11104	115.30776	565.37433	-50.42614	-57.12179	541.62982	830.33673	93.57027	541.48840	835.77576	
1770	17.690	-211.54359	21.84626	-7.18506	282.14160	23.23395	14.43207	-222.53766	19.85699	606.00793	260.46814	14.60752	621.92584	-1.51547	868.52502	-686.77374	-37.68481	559.77380	-53.26353	115.15816	565.66620	-50.56634	-57.24619	541.78406	830.17609	93.88625	541.71100	836.01141	
1771	17.700	-211.66042	21.78642	-7.27670	281.94983	23.40083	14.29514	-222.67247	20.11729	605.89679	260.41290	14.84238	621.85956	-1.78653	868.18103	-687.34833	-37.85886	560.19330	-53.32627	114.97489	565.95026	-50.61561	-57.31829	541.92548	830.12738	93.78242	541.80560	836.01935	
1772	17.710	-211.72549	21.76684	-7.27300	281.81894	23.40518	14.21357	-222.68594	20.30676	605.91278	260.32724	15.09412	621.86554	-1.71792	867.45746	-688.25958	-38.02217	560.59546	-53.25679	114.86087	566.21204	-50.62593	-57.46849	542.12280	829.89905	93.74654	541.91437	835.94250	
1773	17.720	-211.87708	21.73332	-7.37760	281.72601	23.34611	14.03332	-222.64005	20.47749	605.93060	260.19861	15.29250	621.85596	-1.63448	865.90253	-689.11609	-38.10849	560.76727	-53.23890	114.80106	566.34460	-50.60472	-57.58468	542.73608	829.90741	93.07964	542.13770	835.21454	
1774	17.730	-211.92830	21.65602	-7.43516	281.63913	23.35071	13.95293	-222.62358	20.74113	605.84033	260.11411	15.50402	621.85413	-1.40910	863.85822	-690.06342	-38.18914	560.80817	-53.26530	114.67757	566.43976	-50.56620	-57.33615	543.31384	830.29443	93.06594	542.78387	835.22052	
1775	17.740	-211.98837	21.67019	-7.50564	281.61469	23.34662	13.88616	-222.57562	20.97503	605.79010	260.05200	15.75214	621.80212	-1.10836	861.52014	-690.99268	-38.35047	560.83057	-53.27318	114.59595	566.48248	-50.58769	-57.13200	543.73511	830.31451	93.50278	543.44904	835.57281	
1776	17.750	-212.02013	21.62919	-7.58731	281.58075	23.22850	13.79823	-222.64926	21.28419	605.68799	259.86533	15.97316	621.64630	-0.91118	858.68207	-691.88593	-38.53238	560.72388	-53.30582	114.35968	566.37756	-50.69631	-57.27869	544.20654	830.15051	93.49309	543.86346	835.20996	
1777	17.760	-212.13676	21.60186	-7.66432	281.51080	23.26818	13.79497	-222.69038	21.59688	605.58002	259.78183	16.20591	621.46973	-0.51746	855.77643	-692.60168	-38.71840	560.41309	-53.44121	114.32070	566.11700	-50.79175	-57.40756	545.23615	829.96661	93.23875	544.66632	835.35883	
1778	17.770	-212.17911	21.53423	-7.68054	281.43790	23.25250	13.74985	-222.79372	21.85516	605.45953	259.68069	16.32701	621.37909	-0.19278	852.98938	-693.22931	-38.92647	559.87531	-53.62866	114.15164	565.70282	-50.99178	-57.27042	545.82043	830.09332	93.25146	545.66040	835.23694	
